<svg xmlns="http://www.w3.org/2000/svg" width="828" height="128"><style><![CDATA[.B{fill:#c6e48b}.C{fill:#0F1114}.D{fill:#58965C}.E{fill:#239a3b}.F{fill:#2C3A31} ]]></style><path d="M26 20h12v12H26z" class="C"/><path d="M26 35h12v12H26zm0 15h12v12H26z" class="B"/><path d="M26 65h12v12H26zm0 15h12v12H26z" class="D"/><path d="M26 95h12v12H26zm0 15h12v12H26zm15-90h12v12H41z" class="C"/><path d="M41 35h12v12H41zm0 15h12v12H41zm0 15h12v12H41zm0 15h12v12H41z" class="B"/><path d="M41 95h12v12H41z" class="E"/><path d="M41 110h12v12H41z" class="B"/><path d="M56 20h12v12H56z" class="C"/><path d="M56 35h12v12H56zm0 15h12v12H56z" class="D"/><path d="M56 65h12v12H56zm0 15h12v12H56zm0 15h12v12H56z" class="B"/><path d="M56 110h12v12H56zm15-90h12v12H71zm0 15h12v12H71zm0 15h12v12H71zm0 15h12v12H71z" class="C"/><path d="M71 80h12v12H71zm0 15h12v12H71z" class="B"/><path d="M71 110h12v12H71z" class="C"/><path d="M86 20h12v12H86z" class="F"/><path d="M86 35h12v12H86zm0 15h12v12H86z" class="D"/><path d="M86 65h12v12H86zm0 15h12v12H86zm0 15h12v12H86zm0 15h12v12H86z" class="E"/><path d="M101 20h12v12h-12z" class="B"/><path d="M101 35h12v12h-12zm0 15h12v12h-12z" class="D"/><path d="M101 65h12v12h-12z" class="C"/><path d="M101 80h12v12h-12zm0 15h12v12h-12zm0 15h12v12h-12z" class="B"/><path d="M116 20h12v12h-12z" class="D"/><path d="M116 35h12v12h-12z" class="B"/><path d="M116 50h12v12h-12z" class="C"/><path d="M116 65h12v12h-12z" class="D"/><path d="M116 80h12v12h-12zm0 15h12v12h-12zm0 15h12v12h-12z" class="C"/><path d="M131 20h12v12h-12z" class="E"/><path d="M131 35h12v12h-12z" class="C"/><path d="M131 50h12v12h-12zm0 15h12v12h-12zm0 15h12v12h-12z" class="B"/><path d="M131 95h12v12h-12zm0 15h12v12h-12zm15-90h12v12h-12zm0 15h12v12h-12zm0 15h12v12h-12zm0 15h12v12h-12zm0 15h12v12h-12zm0 15h12v12h-12zm0 15h12v12h-12zm15-90h12v12h-12zm0 15h12v12h-12zm0 15h12v12h-12zm0 15h12v12h-12zm0 15h12v12h-12zm0 15h12v12h-12zm0 15h12v12h-12zm15-90h12v12h-12zm0 15h12v12h-12zm0 15h12v12h-12zm0 15h12v12h-12zm0 15h12v12h-12z" class="C"/><path d="M176 95h12v12h-12zm0 15h12v12h-12zm15-90h12v12h-12z" class="B"/><path d="M191 35h12v12h-12z" class="E"/><path d="M191 50h12v12h-12z" class="C"/><path d="M191 65h12v12h-12z" class="B"/><path d="M191 80h12v12h-12zm0 15h12v12h-12zm0 15h12v12h-12z" class="C"/><path d="M206 20h12v12h-12z" class="E"/><path d="M206 35h12v12h-12z" class="C"/><path d="M206 50h12v12h-12z" class="B"/><path d="M206 65h12v12h-12zm0 15h12v12h-12z" class="D"/><path d="M206 95h12v12h-12z" class="B"/><path d="M206 110h12v12h-12z" class="C"/><path d="M221 20h12v12h-12z" class="B"/><path d="M221 35h12v12h-12z" class="C"/><path d="M221 50h12v12h-12z" class="B"/><path d="M221 65h12v12h-12z" class="D"/><path d="M221 80h12v12h-12z" class="E"/><path d="M221 95h12v12h-12z" class="B"/><path d="M221 110h12v12h-12z" class="D"/><path d="M236 20h12v12h-12z" class="B"/><path d="M236 35h12v12h-12z" class="E"/><path d="M236 50h12v12h-12z" class="B"/><path d="M236 65h12v12h-12z" class="C"/><path d="M236 80h12v12h-12z" class="B"/><path d="M236 95h12v12h-12z" class="C"/><path d="M236 110h12v12h-12z" class="B"/><path d="M251 20h12v12h-12zm0 15h12v12h-12zm0 15h12v12h-12z" class="C"/><path d="M251 65h12v12h-12z" class="B"/><path d="M251 80h12v12h-12z" class="C"/><path d="M251 95h12v12h-12z" class="B"/><path d="M251 110h12v12h-12z" class="C"/><path d="M266 20h12v12h-12zm0 15h12v12h-12zm0 15h12v12h-12zm0 15h12v12h-12zm0 15h12v12h-12z" class="B"/><path d="M266 95h12v12h-12z" class="C"/><path d="M266 110h12v12h-12z" class="B"/><path d="M281 20h12v12h-12z" class="F"/><path d="M281 35h12v12h-12zm0 15h12v12h-12z" class="D"/><path d="M281 65h12v12h-12z" class="E"/><path d="M281 80h12v12h-12zm0 15h12v12h-12zm0 15h12v12h-12zm15-90h12v12h-12zm0 15h12v12h-12z" class="B"/><path d="M296 50h12v12h-12z" class="D"/><path d="M296 65h12v12h-12z" class="B"/><path d="M296 80h12v12h-12zm0 15h12v12h-12zm0 15h12v12h-12z" class="C"/><path d="M311 20h12v12h-12zm0 15h12v12h-12zm0 15h12v12h-12z" class="B"/><path d="M311 65h12v12h-12z" class="D"/><path d="M311 80h12v12h-12z" class="B"/><path d="M311 95h12v12h-12z" class="C"/><path d="M311 110h12v12h-12z" class="B"/><path d="M326 20h12v12h-12z" class="D"/><path d="M326 35h12v12h-12zm0 15h12v12h-12z" class="B"/><path d="M326 65h12v12h-12z" class="C"/><path d="M326 80h12v12h-12z" class="B"/><path d="M326 95h12v12h-12zm0 15h12v12h-12zm15-90h12v12h-12z" class="C"/><path d="M341 35h12v12h-12zm0 15h12v12h-12zm0 15h12v12h-12zm0 15h12v12h-12z" class="B"/><path d="M341 95h12v12h-12zm0 15h12v12h-12z" class="C"/><path d="M356 20h12v12h-12z" class="B"/><path d="M356 35h12v12h-12z" class="F"/><path d="M356 50h12v12h-12z" class="C"/><path d="M356 65h12v12h-12z" class="D"/><path d="M356 80h12v12h-12zm0 15h12v12h-12z" class="B"/><path d="M356 110h12v12h-12z" class="D"/><path d="M371 20h12v12h-12z" class="C"/><path d="M371 35h12v12h-12zm0 15h12v12h-12z" class="B"/><path d="M371 65h12v12h-12z" class="C"/><path d="M371 80h12v12h-12z" class="B"/><path d="M371 95h12v12h-12zm0 15h12v12h-12z" class="C"/><path d="M386 20h12v12h-12z" class="B"/><path d="M386 35h12v12h-12z" class="D"/><path d="M386 50h12v12h-12zm0 15h12v12h-12z" class="C"/><path d="M386 80h12v12h-12z" class="B"/><path d="M386 95h12v12h-12z" class="F"/><path d="M386 110h12v12h-12z" class="D"/><path d="M401 20h12v12h-12z" class="F"/><path d="M401 35h12v12h-12z" class="B"/><path d="M401 50h12v12h-12z" class="C"/><path d="M401 65h12v12h-12zm0 15h12v12h-12z" class="B"/><path d="M401 95h12v12h-12z" class="D"/><path d="M401 110h12v12h-12zm15-90h12v12h-12z" class="C"/><path d="M416 35h12v12h-12zm0 15h12v12h-12z" class="B"/><path d="M416 65h12v12h-12zm0 15h12v12h-12z" class="C"/><path d="M416 95h12v12h-12z" class="B"/><path d="M416 110h12v12h-12zm15-90h12v12h-12zm0 15h12v12h-12zm0 15h12v12h-12zm0 15h12v12h-12z" class="C"/><path d="M431 80h12v12h-12z" class="B"/><path d="M431 95h12v12h-12zm0 15h12v12h-12zm15-90h12v12h-12zm0 15h12v12h-12zm0 15h12v12h-12zm0 15h12v12h-12zm0 15h12v12h-12z" class="C"/><path d="M446 95h12v12h-12z" class="B"/><path d="M446 110h12v12h-12zm15-90h12v12h-12z" class="C"/><path d="M461 35h12v12h-12z" class="B"/><path d="M461 50h12v12h-12zm0 15h12v12h-12zm0 15h12v12h-12z" class="C"/><path d="M461 95h12v12h-12z" class="D"/><path d="M461 110h12v12h-12z" class="C"/><path d="M476 20h12v12h-12z" class="B"/><path d="M476 35h12v12h-12z" class="D"/><path d="M476 50h12v12h-12z" class="C"/><path d="M476 65h12v12h-12zm0 15h12v12h-12zm0 15h12v12h-12zm0 15h12v12h-12z" class="B"/><path d="M491 20h12v12h-12zm0 15h12v12h-12zm0 15h12v12h-12zm0 15h12v12h-12zm0 15h12v12h-12zm0 15h12v12h-12zm0 15h12v12h-12zm15-90h12v12h-12zm0 15h12v12h-12zm0 15h12v12h-12zm0 15h12v12h-12z" class="C"/><path d="M506 80h12v12h-12z" class="B"/><path d="M506 95h12v12h-12zm0 15h12v12h-12zm15-90h12v12h-12zm0 15h12v12h-12zm0 15h12v12h-12zm0 15h12v12h-12zm0 15h12v12h-12zm0 15h12v12h-12z" class="C"/><path d="M521 110h12v12h-12z" class="D"/><path d="M536 20h12v12h-12zm0 15h12v12h-12z" class="C"/><path d="M536 50h12v12h-12z" class="D"/><path d="M536 65h12v12h-12z" class="B"/><path d="M536 80h12v12h-12zm0 15h12v12h-12zm0 15h12v12h-12zm15-90h12v12h-12zm0 15h12v12h-12zm0 15h12v12h-12zm0 15h12v12h-12zm0 15h12v12h-12zm0 15h12v12h-12z" class="C"/><path d="M551 110h12v12h-12z" class="B"/><path d="M566 20h12v12h-12zm0 15h12v12h-12zm0 15h12v12h-12zm0 15h12v12h-12zm0 15h12v12h-12zm0 15h12v12h-12z" class="C"/><path d="M566 110h12v12h-12z" class="B"/><path d="M581 20h12v12h-12zm0 15h12v12h-12zm0 15h12v12h-12zm0 15h12v12h-12zm0 15h12v12h-12z" class="C"/><path d="M581 95h12v12h-12z" class="B"/><path d="M581 110h12v12h-12zm15-90h12v12h-12z" class="C"/><path d="M596 35h12v12h-12z" class="B"/><path d="M596 50h12v12h-12zm0 15h12v12h-12zm0 15h12v12h-12zm0 15h12v12h-12zm0 15h12v12h-12zm15-90h12v12h-12zm0 15h12v12h-12zm0 15h12v12h-12zm0 15h12v12h-12z" class="C"/><path d="M611 80h12v12h-12z" class="B"/><path d="M611 95h12v12h-12z" class="C"/><path d="M611 110h12v12h-12zm15-90h12v12h-12z" class="B"/><path d="M626 35h12v12h-12zm0 15h12v12h-12zm0 15h12v12h-12zm0 15h12v12h-12zm0 15h12v12h-12zm0 15h12v12h-12zm15-90h12v12h-12zm0 15h12v12h-12zm0 15h12v12h-12z" class="C"/><path d="M641 65h12v12h-12z" class="D"/><path d="M641 80h12v12h-12zm0 15h12v12h-12zm0 15h12v12h-12zm15-90h12v12h-12zm0 15h12v12h-12zm0 15h12v12h-12zm0 15h12v12h-12z" class="C"/><path d="M656 80h12v12h-12z" class="B"/><path d="M656 95h12v12h-12zm0 15h12v12h-12zm15-90h12v12h-12zm0 15h12v12h-12zm0 15h12v12h-12zm0 15h12v12h-12zm0 15h12v12h-12zm0 15h12v12h-12zm0 15h12v12h-12zm15-90h12v12h-12z" class="C"/><path d="M686 35h12v12h-12z" class="B"/><path d="M686 50h12v12h-12zm0 15h12v12h-12z" class="C"/><path d="M686 80h12v12h-12zm0 15h12v12h-12z" class="B"/><path d="M686 110h12v12h-12zm15-90h12v12h-12z" class="C"/><path d="M701 35h12v12h-12z" class="B"/><path d="M701 50h12v12h-12z" class="C"/><path d="M701 65h12v12h-12z" class="B"/><path d="M701 80h12v12h-12zm0 15h12v12h-12zm0 15h12v12h-12zm15-90h12v12h-12zm0 15h12v12h-12zm0 15h12v12h-12z" class="C"/><path d="M716 65h12v12h-12z" class="B"/><path d="M716 80h12v12h-12zm0 15h12v12h-12zm0 15h12v12h-12zm15-90h12v12h-12z" class="C"/><path d="M731 35h12v12h-12z" class="B"/><path d="M731 50h12v12h-12z" class="D"/><path d="M731 65h12v12h-12zm0 15h12v12h-12zm0 15h12v12h-12zm0 15h12v12h-12zm15-90h12v12h-12z" class="B"/><path d="M746 35h12v12h-12zm0 15h12v12h-12z" class="C"/><path d="M746 65h12v12h-12zm0 15h12v12h-12z" class="B"/><path d="M746 95h12v12h-12z" class="C"/><path d="M746 110h12v12h-12z" class="D"/><path d="M761 20h12v12h-12z" class="C"/><path d="M761 35h12v12h-12z" class="D"/><path d="M761 50h12v12h-12zm0 15h12v12h-12z" class="C"/><path d="M761 80h12v12h-12z" class="D"/><path d="M761 95h12v12h-12zm0 15h12v12h-12z" class="B"/><path d="M776 20h12v12h-12z" class="D"/><path d="M776 35h12v12h-12z" class="C"/><path d="M776 50h12v12h-12z" class="B"/><path d="M776 65h12v12h-12zm0 15h12v12h-12zm0 15h12v12h-12zm0 15h12v12h-12zm15-90h12v12h-12z" class="C"/><path d="M791 35h12v12h-12z" class="D"/><path d="M791 50h12v12h-12zm0 15h12v12h-12zm0 15h12v12h-12zm0 15h12v12h-12zm0 15h12v12h-12zm15-90h12v12h-12zm0 15h12v12h-12z" class="C"/><path d="M806 50h12v12h-12z" class="B"/><path d="M806 65h12v12h-12z" class="C"/><path d="M806 80h12v12h-12z" class="B"/><path d="M806 95h12v12h-12zm0 15h12v12h-12z" class="C"/><text style="fill:#f8f8f8;" x="16" y="-9" transform="translate(10 20)">Apr</text><text  style="fill:#f8f8f8;" x="46" y="-9" transform="translate(10 20)">May</text><text style="fill:#f8f8f8;" x="106" y="-9" transform="translate(10 20)">Jun</text><text style="fill:#f8f8f8;"  x="181" y="-9" transform="translate(10 20)">Jul</text><text style="fill:#f8f8f8;"  x="241" y="-9" transform="translate(10 20)">Aug</text><text style="fill:#f8f8f8;" x="301" y="-9" transform="translate(10 20)">Sep</text><text style="fill:#f8f8f8;" x="376" y="-9" transform="translate(10 20)">Oct</text><text x="436" y="-9" transform="translate(10 20)" style="fill:#f8f8f8;">Nov</text><text x="496" y="-9" transform="translate(10 20)" style="fill:#f8f8f8;">Dec</text><text x="571" y="-9" transform="translate(10 20)" style="fill:#f8f8f8;">Jan</text><text x="631" y="-9" transform="translate(10 20)" style="fill:#f8f8f8;">Feb</text><text x="691" y="-9" transform="translate(10 20)" style="fill:#f8f8f8;">Mar</text><text x="766" y="-9" transform="translate(10 20)" style="fill:#f8f8f8;">Apr</text></svg>