<svg xmlns="http://www.w3.org/2000/svg" width="32.477" height="32.416" viewBox="0 0 32.477 32.416">
  <path id="Icon_simple-github" data-name="Icon simple-github" d="M16.238.445A16.43,16.43,0,0,0,0,17.065,16.587,16.587,0,0,0,11.1,32.833c.812.157,1.11-.357,1.11-.8,0-.395-.014-1.44-.02-2.825-4.517,1-5.47-2.23-5.47-2.23a4.379,4.379,0,0,0-1.807-2.431c-1.471-1.03.114-1.01.114-1.01A3.414,3.414,0,0,1,7.517,25.25a3.416,3.416,0,0,0,4.729,1.382,3.575,3.575,0,0,1,1.028-2.223c-3.606-.415-7.4-1.845-7.4-8.213a6.5,6.5,0,0,1,1.671-4.46,6.038,6.038,0,0,1,.142-4.4s1.36-.446,4.466,1.7a14.971,14.971,0,0,1,8.119,0c3.085-2.149,4.445-1.7,4.445-1.7a6.205,6.205,0,0,1,.162,4.4,6.523,6.523,0,0,1,1.664,4.46c0,6.385-3.8,7.79-7.409,8.2a4.029,4.029,0,0,1,1.1,3.075c0,2.224-.02,4.011-.02,4.551,0,.436.284.956,1.116.789A16.53,16.53,0,0,0,32.476,17.065,16.433,16.433,0,0,0,16.238.445" transform="translate(0 -0.445)" fill="#181a1b"/>
</svg>
